<svg id="Capa_1" data-name="Capa 1" xmlns="http://www.w3.org/2000/svg" xmlns:xlink="http://www.w3.org/1999/xlink" viewBox="0 0 649.5 720"><defs><style>.cls-1{fill:none;}.cls-2{clip-path:url(#clip-path);}.cls-3{opacity:0.05;}.cls-4,.cls-5{fill:#fff;}.cls-4{opacity:0.2;}</style><clipPath id="clip-path"><rect class="cls-1" width="649.5" height="720"/></clipPath></defs><g class="cls-2"><g class="cls-3"><path class="cls-4" d="M-323.42,239.41H82.94a3.35,3.35,0,0,0,1.09-.12Z"/><path class="cls-5" d="M-365.92,317.18H96.38c3.35.08,33.34,1.14,48.6,21.91,4,5.35,8.41,11.92,8.41,11.92,4.54,8.83,2.69,16.41-5.51,16.41H127.33s-4.12-6-7.8-11c-5.24-7.17-19.31-9.13-23.42-9.26h-462c-4,0-7-2.15-7-14.62S-369.84,317.18-365.92,317.18Z"/><path class="cls-5" d="M-377.45,394.34c0,17.48,1.34,29.74,16.15,29.74s15.66-11,15.66-20.52c-.6-5.34,7.9-4.73,7.9-4.73H85s7.16.49,16.63-9.23,5.1-17.48-1.58-17.48H-365.43C-372.23,372.12-377.45,377-377.45,394.34Z"/><path class="cls-5" d="M384.69,295.35c-2.12,3.23-5.75,8.2-8.86,12.28,4.78,21.27-5,30.5-24.1,35.16-3,.75-6.86,1.94-11,3.26-17.57,5.53-34.8,11.61-44.55-.34a14,14,0,0,1-2.58-4.45c-3.44-9.28-2.55-13.63,2.15-19.22,6.58-7.81,15.05-8.69,23.27-5.56,6.66,2.46,20.26-1.89,23-8.61,1.91-4.48.67-17.62-1.91-25.33-3.22-9.46-12.3-27.7-28.91-22.66,0,0-17.68,4.86-16.63,12.06.89,5.94,7.07,8.35,8.63,6.33a11.13,11.13,0,0,1,5.77-4.11A11.44,11.44,0,0,1,323,281.22c3.65,11.18-3.92,20.41-12.92,24.42-1.19.49-12,4.55-22.95-.54-5.37-2.51-12.63-8.23-16.09-20.83l-.56-1.86c-5.76-20.07-4.36-30.21,32.83-43.56,34.92-12.49,45.13-1,52.71,14.49a10.17,10.17,0,0,1,1.88.85c1.4.83,4.43,1.47,6.88,2,5.37,1.14,11.93,2.64,14.94,8.74a9.12,9.12,0,0,0,.75,1.3C384.05,272.27,391.41,284.92,384.69,295.35Z"/><path class="cls-5" d="M333,405.36a11.47,11.47,0,0,1,6.85-2.14A11,11,0,0,1,351,414.06c-.05,11.66-10.13,18.26-20,19.48-1.29.1-12.84.82-21.71-7.3-4.35-4-9.35-11.54-8.76-24.55l.06-1.91c.88-20.8,5.37-30.09,45-31.92,37.24-1.66,43.32,12.28,45.63,29.25a8.51,8.51,0,0,1,1.53,1.35c1.13,1.19,3.81,2.69,6,3.93,4.71,2.67,10.56,6,11.48,12.7a7.94,7.94,0,0,0,.29,1.4c1.45,6.85,4.49,21-5.19,29-3.09,2.46-8.11,6.13-12.35,9.13-2.15,21.65-14.35,27.58-34.05,26.44-3.09-.15-7.17-.15-11.47-.13-18.54.13-36.86.93-42.34-13.37a13.43,13.43,0,0,1-1.07-4.94c-.33-9.88,1.88-13.79,8.11-17.72,8.76-5.49,17.14-3.86,24,1.5,5.48,4.32,19.78,4.11,24.56-1.45,3.28-3.75,6.18-16.61,6.15-24.68-.08-10-2.92-30-20.33-30.06,0,0-18.38-.54-19.67,6.57C325.77,402.73,331,406.84,333,405.36Z"/><path class="cls-5" d="M657.29,657.74c.3-6,5.64-10.43,11.77-10.25,12.14.6,18.49,10.66,19.29,20.18,0,1.27.21,12.44-8.62,20.54-4.33,4-12.39,8.48-25.88,7.29l-2-.2c-21.49-1.79-30.9-6.57-30.9-44.81,0-35.88,14.73-41,32.46-42.5a8.94,8.94,0,0,1,1.48-1.39c1.32-1,3-3.52,4.33-5.51,3-4.43,6.74-9.89,13.72-10.48.41,0,.89-.11,1.51-.18,7.12-1.09,22.06-3.37,29.8,6.39,2.49,3,6,8,8.92,12.26,22.38,3.13,27.94,15.13,25.79,34-.32,3-.54,6.89-.65,11-.8,17.8-.8,35.47-15.9,40.12a16.89,16.89,0,0,1-5.19.75c-10.23-.18-14.16-2.46-18-8.64-5.27-8.66-3.23-16.63,2.68-23,4.73-5.12,5.22-18.88-.37-23.72-3.68-3.28-16.88-6.73-25.31-7.06C666,632.18,645,634,644.12,650.75c0,0-1.42,17.64,5.92,19.22,6.12,1.27,10.61-3.49,9.19-5.56A10.31,10.31,0,0,1,657.29,657.74Z"/><path class="cls-5" d="M139,715.5c.29-1.89-.38-5.41-.89-8.25-1.15-6.18-2.49-13.89,3.15-19.87.27-.33.64-.8,1.07-1.37,5.3-6.52,16.42-20.23,31.44-17.85,4.67.72,12.09,2.33,18.16,3.7,22.19-14.82,37.21-8.74,51.29,9.39,2.23,2.87,5.4,6.41,8.78,10.14,14.43,16.17,29.4,31.58,20.13,47.47a18.18,18.18,0,0,1-3.84,4.81c-9.11,7.87-14.48,9-23,6.57-12-3.44-16.87-12-17.11-22.22-.22-8.12-11.45-20.51-20.37-20.31-6.07,0-20.53,7.35-28.1,13.66-9.35,7.79-26.06,25.74-12.63,41.06,0,0,13.7,16.52,21.39,12.1,6.42-3.65,6.34-11.33,3.3-12a13.44,13.44,0,0,1-7.33-4.32A12.65,12.65,0,0,1,186,740c11-9,25.15-5.22,33.85,2.46,1.13,1,10.78,10.68,9.94,24.71-.4,6.87-3.71,17.07-16.44,26.61l-1.91,1.4c-20.23,15.37-32.53,18.57-64.88-14.77-30.45-31.3-21.93-47.39-7.66-62.55A13.44,13.44,0,0,1,139,715.5Z"/><path class="cls-5" d="M119.62,507.44c-24.32-1.89-35-7.17-35.31-50.31-.21-40.44,16.34-46.41,36.38-48.14a12.22,12.22,0,0,1,1.59-1.63c1.45-1.06,3.35-4,4.91-6.24,3.28-5,7.47-11.2,15.37-11.87l1.67-.23c8.06-1.27,24.88-4,33.74,7,2.74,3.39,6.83,9.06,10.08,13.79,25.28,3.34,31.62,16.87,29.42,38.18-.38,3.29-.54,7.74-.67,12.42-.78,20.13-.62,40-17.63,45.35a18,18,0,0,1-5.83.93c-11.61-.13-16.07-2.66-20.37-9.6-6-9.75-3.73-18.75,2.91-25.94,5.26-5.83,5.69-21.37-.65-26.75-4.22-3.65-19.13-7.48-28.59-7.79-11.66-.36-35.19,1.79-36.11,20.7,0,0-1.5,19.91,6.83,21.62,6.88,1.42,11.9-4,10.26-6.36a11.48,11.48,0,0,1-2.2-7.48c.32-6.75,6.23-11.79,13.16-11.64,13.71.6,21,11.87,21.93,22.61.08,1.45.37,14-9.54,23.23-4.84,4.5-13.89,9.65-29.13,8.36Z"/><path class="cls-5" d="M279.91,219.19c-5,6.23-14.83,18.91-30,19.43a33.68,33.68,0,0,1-16.41-4c-14.16-7.11-33.34-23-35.49-24.84a15.35,15.35,0,0,1-1.24-22.86,18.41,18.41,0,0,1,24.66-1.22s1.83,1.55,9.25,6.86,14,10.73,17.14,8.12c1.34-1.06,2.47-1.17,3.54-2.51,2.53-3.18,1.62-9.37-5-13.06-20.21-11.49-62.44-38.55-121.93-41.86-9.35-.52-17.62.91-17,10.79.16,3.39.27,6.21,17.3,5.53,1.13,0,2-.07,2.85-.07,9.7-.11,17.55,7.06,17.68,16s-7.42,16.09-16.87,16.37a.93.93,0,0,1-.41,0l-1.85.11c-.27.05-.59,0-.86.05-44.17,1.47-52-22.15-52.71-36.35-.73-13.34-.51-26.12,9-35.25,10.43-10,25.9-9.83,43.74-9.6a2.85,2.85,0,0,0,.65,0c64.19,2.9,121.19,26.8,147,47.78,30.15,24.45,21,43.4,9.68,57.14C281.68,216.91,280.82,218,279.91,219.19Z"/><path class="cls-5" d="M406.51,646.61c56.69,4.3,94.09.08,94.44.08a9,9,0,1,1,2.23,17.88c-1,.1-17.95,2-46.27,2-14.51,0-32-.52-51.85-2a9,9,0,1,1,1.45-18Z"/><path class="cls-5" d="M406.51,675.12c56.69,4.29,94.09.08,94.44,0A9.26,9.26,0,0,1,511.32,683a9.06,9.06,0,0,1-8.14,10c-1,.13-17.95,2.07-46.27,2.07-14.51,0-32-.52-51.85-2a9.11,9.11,0,0,1-8.57-9.67A9.23,9.23,0,0,1,406.51,675.12Z"/><path class="cls-5" d="M375.53,685.49a12.59,12.59,0,0,1-6.26-1.63c-1.77-1-42.56-24.57-54.65-69.43-11.23-41.85-7.9-104.89-7.77-107.58.35-6.63,6.27-11.67,13.12-11.34a12.08,12.08,0,0,1,11.76,12.63c0,.59-3.25,62.06,7.07,100.26,9.35,34.85,42.45,54.35,43.1,54.77a11.71,11.71,0,0,1,4.46,16.37A12.73,12.73,0,0,1,375.53,685.49Z"/><path class="cls-5" d="M380.1,581.79c12.27,17.38,25.68,40.48,5,51.11-7,4.06-24.13.29-33.13-51.89-6.23-37.51-3.25-62.57-3.25-62.57,1.24-14.54,7.42-24.94,39.09-24.94,33.8,0,38,7.68,39.6,25.32l.17,1.69c1.07,11-2.93,17.58-6.45,21.13-7.15,7.22-17,7.06-18.14,7-8.41-.68-17.25-5.85-17.76-15.76a9.43,9.43,0,0,1,9-9.7,9.94,9.94,0,0,1,5.89,1.63c1.82,1.19,6-2.54,4.89-7.5-1.37-6-17-4.87-17-4.87-14.78.73-16.37,17.88-16,26.34C372.36,545.7,372.28,573.53,380.1,581.79Z"/><path class="cls-5" d="M538.1,628.63c-32.45,2-70.82,1.82-76.51,1.74-5.11.44-27.46,1.44-41.65-10.82-7.31-6.36-11.18-15.18-11.18-25.5,0-15.19,12.34-30.53,39.93-30.53,22.87,0,31.11,8.41,33.1,11a11.75,11.75,0,0,1-2.69,16.81,12.8,12.8,0,0,1-16.46-1.47c-.79-.44-4.55-2.38-13.95-2.38-2.5,0-15,.33-15,6.57,0,4.5,1.56,6.44,2.9,7.6,5.86,5.18,19.07,5.18,23.16,4.79.48-.05,1-.08,1.45-.08s41.86.47,75.34-1.65c21.68-1.32,62.09-3.83,65.5,38.75,1.34,17-2.12,29.59-10.64,38.41-7.93,8.23-19.75,12.39-35.28,12.39-19.82,0-31.78-13.06-36.35-25.27-4.24-11.41-2.52-21.94,4.46-27.47,15.85-12.55,31.68-6.86,38.45.07a11.68,11.68,0,0,1-.43,16.95,12.83,12.83,0,0,1-17.65-.44,3,3,0,0,0-2.05.33,16.17,16.17,0,0,0,3.79,7.58,12.49,12.49,0,0,0,9.78,4.25c8.3,0,14-1.61,17-4.66,4.35-4.5,4.62-13.5,4.11-20.36C576.26,633.88,575.64,626.38,538.1,628.63Z"/><path class="cls-5" d="M-368.66,263.12H103.28c45.19,0,99.92,26.05,118,99,1.36,5.13-.89,10.82-13.63,10.82-15.74.7-16.76-3.88-16.76-3.88-17.41-70.47-71.39-75.93-87.59-75.93H-353.67C-363,293.17-381.13,263.12-368.66,263.12Z"/><path class="cls-5" d="M638.91,75.1C632,78.83,614.63,86.31,608,97.58c-7.87,13.25-8.92,59.61-7,107.82,1.47,38.26,2,84.77,1.93,87.72-.19,8.28-15.85,24.27-24.42,24a1.31,1.31,0,0,1-.35,0c-8.49-.36-16.74-17.44-16.52-25.61,0-.72,5.34-48.17,3.89-85.49-.32-9.68-3.22-95.48,14.72-125.75,15.24-25.56,49.17-31.15,53.42-31.82,8.46-1.34,8.81,3.16,10.26,11.33S646.44,71.1,638.91,75.1Z"/><path class="cls-5" d="M400.44,6.94a11.48,11.48,0,0,0-3.07.31,10.7,10.7,0,0,1,3-.31Z"/><path class="cls-5" d="M472.66,315.73a12.13,12.13,0,0,1-1.32-.08c-8.54-1.11-15.88-21.73-14.75-29.9,5.13-37.43,24.8-80.55,41.59-135.4.54,0,1,.11,1.56.11A144.26,144.26,0,0,0,553,142.72l.32-.1a22.37,22.37,0,0,0,5.69-2.35c-3.89,65.52-11,154.12-11.15,155.67-.59,8.2-13,22.51-21.38,22.12h-.33c-8.62-.52-17.6-18.21-17-26.44.3-4.91,7.77-45.55,13.11-104.09-12.09,47.34-24.93,74.42-29,103.91C492.19,299.23,480.69,316.09,472.66,315.73Z"/><path class="cls-5" d="M633.81,41.4C620,43.7,597,44,579.59,65,563.41,82.09,562,97.32,562,97.32c-.06.44-.14,1-.19,1.58a14.53,14.53,0,0,0-8.36-2.63,45,45,0,0,0-10,.9l-.7.15-.33.11a127.27,127.27,0,0,1-28.9,4.91c2.6-7.71,5-14.64,7.09-20.46,18-49.12,65.31-63.14,84.17-66,3.71-.59,29.32-4.26,29.64-4.34,8.46-1.32,8.17,4.55,9.51,12.75S642.33,40,633.81,41.4Z"/><path class="cls-5" d="M553.23,102.27a2.42,2.42,0,0,0,.24,0c-.1,0-.32,0-.5,0Z"/><path class="cls-5" d="M548.91,102.42a3.82,3.82,0,0,0,.75-.08c1.24-.07,2.36-.1,3.31-.07.18,0,.4,0,.5,0a13.9,13.9,0,0,1,2.32.26c.05,0,.13,0,.16.07a8.36,8.36,0,0,1,1.82.78,1.08,1.08,0,0,1,.27.23,5.41,5.41,0,0,1,1.24,1.19c0,.05.05.08.05.13a5,5,0,0,1,.7,1.55,1.73,1.73,0,0,1,.11.37,7.72,7.72,0,0,1,.37,2,2.48,2.48,0,0,1,0,.47,19.23,19.23,0,0,1,.08,2.2V112c0,.88,0,1.86-.08,2.9,0,.31,0,.65,0,1,0,.93-.1,1.86-.16,2.89-.16,2.62-.32,5.33-.53,8.26-.62,6.08-2.26,8.28-8.39,9.83a136.92,136.92,0,0,1-51.42,7.6l-.06,0c-67.73-3-85.89-34.69-105.42-90.13-8.34-23.93-7.64-23.9-7.8-24.52-2.15-8,2.37-20.52,10.64-22.56a11.54,11.54,0,0,1,3.09-.31,7,7,0,0,1,.84.16,12,12,0,0,1,2.12.41c.35.13.7.31,1.1.44a18,18,0,0,1,1.77.83c.38.2.7.44,1.13.67s1.05.75,1.59,1.17c.34.28.67.59,1,.87.51.44,1,1,1.45,1.43.27.28.59.64.86,1a21,21,0,0,1,1.29,1.66c.21.33.49.69.73,1,.4.62.72,1.27,1.07,1.91.13.31.35.6.48.94A29.46,29.46,0,0,1,417,22.31c0,.13-.83-.36,7.15,22.37,20.17,57.46,53.87,62.76,77.48,63.8,3.39.12,6.69.12,9.86,0a130.29,130.29,0,0,0,33.08-5.41C546.17,102.76,547.62,102.58,548.91,102.42Z"/><path class="cls-5" d="M855.47,232.85c-.38,0-12.31-.83-14.78-1-9.4-.65-38-1.82-48.74-2.13-28.26-1.55-43.53-2.27-64.48-2.27-4.84,0-10.18-.29-15.88-.57-29.8-1.55-68,8.38-83,54.68C614.52,325.15,601.24,391.11,601,394.42l-1.05,7.14s3.57,30.16,12.92,20.67c5.16-6.91,15.58-13.58,16.34-21.6l.61-3.54c.09-.81,10.24-67.7,27.41-106.87,10.21-23.28,16.39-32.59,52.8-34.48a7.11,7.11,0,0,1,1,0c-2.4,2.56-4.6,5.07-6.77,7.35C684.88,284.48,676.85,292.84,662,333c-15.48,41.91-11.07,72.3-10,75,0,0,5.86,29.82,14,19.84,4.46-7.07,10.34-14,10.72-22.12s10-44.37,11.95-56.65c6-39.4,17.14-59.63,42.59-75,16.79-10.12,63.22-14.82,97.18-13.81,14.53.85,24.82,1.5,25.09,1.5,8.28.46,21.23-4.35,21.71-12.27S863.71,233.37,855.47,232.85ZM842,245.08a2,2,0,0,1-1.13.47l-.08,0h0a1.9,1.9,0,0,1-1-.47.8.8,0,0,1-.16-.16,5.3,5.3,0,0,1-.94-1.21,2.27,2.27,0,0,1-.19-.34,13.81,13.81,0,0,1-1.15-1.94c-.41-.75-.86-1.52-1.37-2.38a2.61,2.61,0,0,0-.27-.33c-.49-.86-1.08-1.76-1.75-2.72-.13-.15-.24-.28-.4-.44a18.42,18.42,0,0,0-2.42-2.9,2,2,0,0,0-.4-.49,2,2,0,0,1,.4.49,18.42,18.42,0,0,1,2.42,2.9c.16.16.27.29.4.44.67,1,1.26,1.86,1.75,2.72a2.61,2.61,0,0,1,.27.33c.51.86,1,1.63,1.37,2.38a13.81,13.81,0,0,0,1.15,1.94,2.27,2.27,0,0,0,.19.34,5.3,5.3,0,0,0,.94,1.21.8.8,0,0,0,.16.16,1.9,1.9,0,0,0,1,.47.86.86,0,0,0,.13,0A2,2,0,0,0,842,245.08Z"/><path class="cls-5" d="M543.8,510.1c-4.27-.3-8.38-.74-12.25-1.31-19.67-3.08-33.64-9.91-42.58-20.88-15.19-18.62-10.89-42.53-7.12-63.61l.48-3c7.47-42.35,39.47-40.15,73.32-37.82,29,2,41.27,10.24,38.07,53.83-1.07,14.25-5.43,24.24-13.27,30.55-10.27,8.23-22.46,6.91-30.47,6-1.24-.15-2.39-.26-3.55-.34-14.29-.93-23.4-13.86-22.57-32,1-22.22,15.48-23.15,18.36-23.1,8.19.08,14.75,6.57,14.64,14.43a13.94,13.94,0,0,1-3.39,8.8c-.77,1.45-1,3.42.06,3.85a15,15,0,0,0,8.16.26c1.51-.85,2.48-10.55,2.48-10.55,1.18-11.07,4.48-20.88-10.64-23.36-38.59-6.37-39.44-.44-42,14.2l-.53,3c-2.83,16-5.78,32.52,1.28,41.24,5.14,6.33,16.48,10.14,33.62,11.3,50.78,3.49,71.71-9.29,76.62-48.19,1-7.79,9.35-25.46,15.8-25,5.75.39,8.06,14.69,8.33,21.86.21,1.29.3,8,.21,9.34-3.92,39.08,15.86,52.92,66.48,57.58,17.14,1.6,29-.39,35.11-5.77,8.52-7.45,8.46-24.27,8.41-40.49l-.05-3.05c0-14.79.16-20.74-39-20.69-15.28,0-13.78,10.22-14.45,21.34,0,0-.73,9.73.56,10.79a15.39,15.39,0,0,0,8.17,1.11c1.1-.31,1.24-2.28.65-3.86a13.69,13.69,0,0,1-1.72-9.21c1.18-7.78,8.81-13.14,16.84-11.9,2.88.39,17,3.65,14.16,25.69-2.36,18-13.51,29.31-27.75,28-1.16-.13-2.4-.18-3.57-.24-8.09-.41-20.27-1.06-29.05-10.84-6.64-7.42-9.19-18-7.76-32.23,4.29-43.51,17.89-49.61,46.8-47,33.8,3.07,65.72,6,65.74,49v3c.08,21.34.19,45.6-18,61.54-10.7,9.41-25.66,13.92-45.57,13.76-3.9,0-8.06-.28-12.31-.62-17.73-1.63-61.63-5.72-81.43-39C603.61,514.17,561.19,511.29,543.8,510.1Z"/><path class="cls-5" d="M66.23,516.8a63.91,63.91,0,0,0,8-.23c12.41-.75,29.34-1.7,40.73,9.47,6.83,6.67,9.78,16,8.76,27.65a1107.37,1107.37,0,0,0-2.36,123.22c1.39,7.65-3.93,14.82-11.83,16.16a14.5,14.5,0,0,1-16.76-11.38c-.38-2.15-3.28-63.48,2-130.22.41-4.5-.51-5.9-.51-5.9-2-2.07-14.24-1.34-18.27-1.11a86.82,86.82,0,0,1-12.41.18,14.26,14.26,0,0,1-13.22-14.3,5.16,5.16,0,0,1,.11-.88C51.16,521.77,58.22,516.11,66.23,516.8Z"/><path class="cls-5" d="M169.13,540.73l.14,95.56a14.2,14.2,0,0,1-13.92,14.54c-8,.26-14.73-5.72-15-13.43l-.16-95.55v-1a14.3,14.3,0,0,1,14-13.51C162.09,527,168.84,533,169.13,540.73Z"/><path class="cls-5" d="M214.62,535.9l.86,105.28c.4,7.76-5.91,14.23-13.89,14.54a14.32,14.32,0,0,1-15.13-13.38l-.8-105.25a6,6,0,0,1,0-1,14.52,14.52,0,0,1,29-.15Z"/><path class="cls-5" d="M-377.46,226.38c0,11.17,2.67,13,6.32,13h47.71l434.89-.12a127.26,127.26,0,0,1,14.69.85c37.89,4,120.69,26.71,120.69,148.86,0,142.78,2.31,247.2,33.39,292.49,30.72,44.93,62.66,67.75,151.9,67.75,8.37,0,17.6-.24,27.19-.61,38.49-1.69,101.87-2.54,188.2-2.54,105,0,220.74,1.21,289.83,1.94,31.56.36,54.39.6,63.62.6,32.42,0,63.13-1.69,82.56-22.21,13.11-13.85,18.34-33.27,15.79-59.5-4.5-48.32-22.71-230.21-32.06-298.93-1.58-11.9-2.55-11.41-3-15.05l-16.39.24c1.57,25.37,9.71,157.36,16.51,317,.48,12.75.48,25.74-6.8,33.39-9.71,10.2-32.3,11.17-56.58,11.17-7.89,0-25.5-.24-50-.49l-17.48-.12c-73.09-.85-183.7-1.94-286.18-1.94-86.94,0-150.68.85-189.41,2.55-9.23.36-17.85.61-25.86.61-80.63,0-99.93-19.92-122.39-52.58C284.12,625.6,282.06,512.07,282.06,389c0-163.55-129.19-176.3-168.9-176.3H-372.48C-375.27,213.39-377.46,216.66-377.46,226.38Z"/></g></g></svg>