<?xml version="1.0" encoding="utf-8"?>
<!-- Generator: Adobe Illustrator 25.4.1, SVG Export Plug-In . SVG Version: 6.00 Build 0)  -->
<svg version="1.0" xmlns="http://www.w3.org/2000/svg" xmlns:xlink="http://www.w3.org/1999/xlink" x="0px" y="0px"
	 viewBox="0 0 335.68 152.71" style="enable-background:new 0 0 335.68 152.71;" xml:space="preserve">
<style type="text/css">
	.st0{fill:#FFFFFF;}
	.st1{fill:#8DB25F;}
	.st2{fill:#325991;}
	.st3{fill:#3A4A62;}
	.st4{opacity:0.1;}
	.st5{fill:url(#SVGID_00000176040232716208648600000003540563319986768522_);}
	.st6{fill:url(#SVGID_00000049941827156429250600000005289223815712900750_);}
	.st7{fill:url(#Degradado_00000150798710883494843160000001403593084119327934_);}
	.st8{opacity:0.2;fill:#7F417C;}
	.st9{fill:#7F417C;}
	.st10{opacity:0.2;fill:#459EC9;}
	.st11{fill:#459EC9;}
	.st12{opacity:0.2;fill:#A5C169;}
	.st13{fill:#A5C169;}
	.st14{opacity:0.2;fill:#FFFFFF;}
	.st15{opacity:0.2;fill:#72B2BD;}
	.st16{fill:#72B2BD;}
	.st17{opacity:0.2;fill:#E7B95C;}
	.st18{fill:#E7B95C;}
	.st19{fill:#7BB6FC;}
	
		.st20{clip-path:url(#SVGID_00000082353178681503588040000001625505510733305533_);fill:none;stroke:#E7EBF0;stroke-width:2.2025;stroke-linecap:round;}
	.st21{clip-path:url(#SVGID_00000082353178681503588040000001625505510733305533_);}
	.st22{fill:none;stroke:#E7EBF0;stroke-width:1.4683;stroke-linecap:round;}
	
		.st23{clip-path:url(#SVGID_00000082353178681503588040000001625505510733305533_);fill:none;stroke:#E7EBF0;stroke-width:1.4683;stroke-linecap:round;}
	.st24{clip-path:url(#SVGID_00000082353178681503588040000001625505510733305533_);fill:#5FA29E;}
	.st25{clip-path:url(#SVGID_00000082353178681503588040000001625505510733305533_);fill:#EDF3F8;}
	
		.st26{clip-path:url(#SVGID_00000082353178681503588040000001625505510733305533_);fill:none;stroke:#3D475B;stroke-width:7.341689e-04;}
	
		.st27{clip-path:url(#SVGID_00000082353178681503588040000001625505510733305533_);fill:none;stroke:#9B9B9B;stroke-width:7.341689e-04;}
	.st28{clip-path:url(#SVGID_00000082353178681503588040000001625505510733305533_);fill:#E2E7EF;}
	.st29{clip-path:url(#SVGID_00000082353178681503588040000001625505510733305533_);fill:#87A85D;}
	.st30{clip-path:url(#SVGID_00000082353178681503588040000001625505510733305533_);fill:#D07D35;}
	.st31{fill:#E6EAEE;}
	.st32{opacity:0.2;fill:#5799D9;}
	.st33{clip-path:url(#SVGID_00000098900341922861454920000003822178030184670884_);}
	.st34{opacity:0.05;clip-path:url(#Degradado_00000159443136003607101360000003598766294232049827_);}
	.st35{clip-path:url(#SVGID_00000150813751666156572950000010144674515673042833_);}
	.st36{opacity:0.05;clip-path:url(#Degradado_00000178920809061323232210000010875891235696162995_);}
	.st37{fill:#E6E6E6;}
	.st38{fill:#E7AD47;}
	.st39{fill:#F2CF67;}
	.st40{fill:#232323;}
	.st41{fill:#895F21;}
	.st42{fill:#F0F1F1;}
	.st43{fill:#CFD1D2;}
	.st44{fill:#CD6554;}
	.st45{fill:#ECC946;}
	.st46{fill:#EFD93C;}
	.st47{fill:#E3A532;}
	.st48{fill:none;stroke:#FFFFFF;stroke-width:0.25;stroke-miterlimit:10;}
	.st49{fill:none;stroke:#325991;stroke-width:0.25;stroke-miterlimit:10;}
	.st50{fill:#004B87;}
	.st51{fill:none;stroke:#004B87;stroke-width:0.25;stroke-miterlimit:10;}
	.st52{fill:#0019BA;}
	.st53{fill:none;stroke:#FFFFFF;stroke-miterlimit:10;}
	.st54{fill:none;stroke:#325A92;stroke-miterlimit:10;}
</style>
<g id="BG">
</g>
<g id="Capa_5">
</g>
<g id="IMG_TORRE">
</g>
<g id="ISOTIPO">
</g>
<g id="Textos_x2F_Contenido">
	<g>
		<g>
			<path class="st0" d="M17.34,111.25c0,2.49-0.68,4.4-2.03,5.72c-1.35,1.32-3.3,1.98-5.84,1.98H5.28v-15.11h4.63
				c2.35,0,4.17,0.65,5.48,1.95S17.34,108.92,17.34,111.25z M15.48,111.31c0-1.97-0.49-3.45-1.48-4.45s-2.46-1.5-4.41-1.5H7.04
				v12.07h2.14c2.09,0,3.67-0.51,4.72-1.54S15.48,113.33,15.48,111.31z"/>
			<path class="st0" d="M20.3,104.56c0-0.39,0.1-0.68,0.29-0.86c0.19-0.18,0.43-0.27,0.72-0.27c0.28,0,0.51,0.09,0.71,0.28
				s0.3,0.47,0.3,0.86c0,0.39-0.1,0.67-0.3,0.86c-0.2,0.19-0.44,0.28-0.71,0.28c-0.29,0-0.53-0.09-0.72-0.28
				C20.4,105.23,20.3,104.94,20.3,104.56z M22.16,118.95h-1.72v-11.33h1.72V118.95z"/>
			<path class="st0" d="M30.97,107.42c0.5,0,0.95,0.04,1.35,0.12l-0.24,1.59c-0.47-0.1-0.88-0.15-1.24-0.15
				c-0.92,0-1.7,0.37-2.35,1.12c-0.65,0.74-0.98,1.67-0.98,2.78v6.08H25.8v-11.33h1.42l0.2,2.1h0.08c0.42-0.74,0.93-1.31,1.52-1.7
				S30.26,107.42,30.97,107.42z"/>
			<path class="st0" d="M39.22,119.16c-1.67,0-2.99-0.51-3.96-1.53s-1.45-2.44-1.45-4.25c0-1.83,0.45-3.28,1.35-4.35
				c0.9-1.07,2.11-1.61,3.62-1.61c1.42,0,2.54,0.47,3.37,1.4s1.24,2.16,1.24,3.69v1.08h-7.8c0.03,1.33,0.37,2.34,1.01,3.03
				c0.64,0.69,1.53,1.03,2.69,1.03c1.22,0,2.42-0.25,3.62-0.76v1.53c-0.61,0.26-1.18,0.45-1.72,0.56S39.99,119.16,39.22,119.16z
				 M38.76,108.85c-0.91,0-1.63,0.3-2.18,0.89c-0.54,0.59-0.86,1.41-0.96,2.46h5.92c0-1.08-0.24-1.91-0.72-2.49
				C40.34,109.14,39.65,108.85,38.76,108.85z"/>
			<path class="st0" d="M50.84,119.16c-1.64,0-2.91-0.5-3.81-1.51c-0.9-1.01-1.35-2.44-1.35-4.28c0-1.89,0.46-3.36,1.37-4.39
				c0.91-1.03,2.21-1.55,3.9-1.55c0.54,0,1.09,0.06,1.63,0.18s0.97,0.25,1.28,0.41l-0.53,1.46c-0.38-0.15-0.79-0.28-1.24-0.38
				c-0.45-0.1-0.84-0.15-1.19-0.15c-2.3,0-3.45,1.47-3.45,4.4c0,1.39,0.28,2.46,0.84,3.2c0.56,0.74,1.39,1.12,2.5,1.12
				c0.94,0,1.91-0.2,2.9-0.61v1.52C52.94,118.96,51.99,119.16,50.84,119.16z"/>
			<path class="st0" d="M60.91,119.16c-1.64,0-2.91-0.5-3.81-1.51c-0.9-1.01-1.35-2.44-1.35-4.28c0-1.89,0.46-3.36,1.37-4.39
				c0.91-1.03,2.21-1.55,3.9-1.55c0.54,0,1.09,0.06,1.63,0.18s0.97,0.25,1.28,0.41l-0.53,1.46c-0.38-0.15-0.79-0.28-1.24-0.38
				c-0.45-0.1-0.84-0.15-1.19-0.15c-2.3,0-3.45,1.47-3.45,4.4c0,1.39,0.28,2.46,0.84,3.2c0.56,0.74,1.39,1.12,2.5,1.12
				c0.94,0,1.91-0.2,2.9-0.61v1.52C63.02,118.96,62.06,119.16,60.91,119.16z"/>
			<path class="st0" d="M66.32,104.56c0-0.39,0.1-0.68,0.29-0.86c0.19-0.18,0.43-0.27,0.72-0.27c0.28,0,0.51,0.09,0.71,0.28
				s0.3,0.47,0.3,0.86c0,0.39-0.1,0.67-0.3,0.86c-0.2,0.19-0.44,0.28-0.71,0.28c-0.29,0-0.53-0.09-0.72-0.28
				C66.41,105.23,66.32,104.94,66.32,104.56z M68.18,118.95h-1.72v-11.33h1.72V118.95z"/>
			<path class="st0" d="M81.59,113.28c0,1.85-0.46,3.29-1.39,4.32s-2.21,1.56-3.85,1.56c-1.01,0-1.91-0.24-2.7-0.71
				c-0.79-0.48-1.39-1.16-1.82-2.05c-0.43-0.89-0.64-1.93-0.64-3.12c0-1.85,0.46-3.28,1.38-4.31c0.92-1.03,2.2-1.54,3.84-1.54
				c1.58,0,2.84,0.53,3.78,1.58C81.12,110.05,81.59,111.48,81.59,113.28z M72.96,113.28c0,1.45,0.29,2.55,0.87,3.31
				c0.58,0.76,1.43,1.14,2.55,1.14c1.12,0,1.98-0.38,2.56-1.13c0.58-0.75,0.87-1.86,0.87-3.31c0-1.44-0.29-2.53-0.87-3.28
				c-0.58-0.75-1.44-1.12-2.58-1.12c-1.12,0-1.97,0.37-2.54,1.11C73.25,110.72,72.96,111.82,72.96,113.28z M74.95,105.87
				c0.33-0.43,0.69-0.94,1.07-1.55c0.38-0.61,0.68-1.13,0.9-1.58h2.09v0.22c-0.3,0.45-0.75,1-1.35,1.65
				c-0.6,0.65-1.12,1.16-1.56,1.52h-1.15V105.87z"/>
			<path class="st0" d="M92.35,118.95v-7.33c0-0.92-0.21-1.61-0.63-2.07c-0.42-0.45-1.08-0.68-1.97-0.68c-1.18,0-2.05,0.32-2.6,0.96
				s-0.83,1.7-0.83,3.17v5.94H84.6v-11.33h1.39l0.28,1.55h0.08c0.35-0.56,0.84-0.99,1.48-1.3s1.34-0.46,2.12-0.46
				c1.36,0,2.39,0.33,3.08,0.99c0.69,0.66,1.03,1.71,1.03,3.16v7.39H92.35z"/>
			<path class="st0" d="M109.99,111.03h5.14v7.35c-0.8,0.25-1.61,0.45-2.44,0.58c-0.83,0.13-1.78,0.2-2.87,0.2
				c-2.29,0-4.07-0.68-5.34-2.04s-1.91-3.27-1.91-5.72c0-1.57,0.32-2.95,0.95-4.13c0.63-1.18,1.54-2.08,2.72-2.71
				c1.18-0.62,2.57-0.94,4.16-0.94c1.61,0,3.11,0.3,4.51,0.89l-0.68,1.55c-1.36-0.58-2.68-0.87-3.94-0.87
				c-1.84,0-3.28,0.55-4.31,1.64c-1.03,1.1-1.55,2.61-1.55,4.56c0,2.04,0.5,3.59,1.49,4.64c1,1.05,2.46,1.58,4.39,1.58
				c1.05,0,2.07-0.12,3.07-0.36v-4.65h-3.38V111.03z"/>
			<path class="st0" d="M123.27,119.16c-1.67,0-2.99-0.51-3.96-1.53s-1.45-2.44-1.45-4.25c0-1.83,0.45-3.28,1.35-4.35
				s2.11-1.61,3.62-1.61c1.42,0,2.54,0.47,3.37,1.4s1.24,2.16,1.24,3.69v1.08h-7.8c0.03,1.33,0.37,2.34,1.01,3.03
				c0.64,0.69,1.53,1.03,2.69,1.03c1.22,0,2.42-0.25,3.62-0.76v1.53c-0.61,0.26-1.18,0.45-1.72,0.56
				C124.69,119.1,124.04,119.16,123.27,119.16z M122.81,108.85c-0.91,0-1.63,0.3-2.18,0.89c-0.54,0.59-0.86,1.41-0.96,2.46h5.92
				c0-1.08-0.24-1.91-0.72-2.49C124.39,109.14,123.7,108.85,122.81,108.85z"/>
			<path class="st0" d="M138.11,118.95v-7.33c0-0.92-0.21-1.61-0.63-2.07c-0.42-0.45-1.08-0.68-1.97-0.68
				c-1.18,0-2.05,0.32-2.6,0.96s-0.83,1.7-0.83,3.17v5.94h-1.72v-11.33h1.39l0.28,1.55h0.08c0.35-0.56,0.84-0.99,1.48-1.3
				c0.63-0.31,1.34-0.46,2.12-0.46c1.36,0,2.39,0.33,3.08,0.99c0.69,0.66,1.03,1.71,1.03,3.16v7.39H138.11z"/>
			<path class="st0" d="M148.14,119.16c-1.67,0-2.99-0.51-3.96-1.53c-0.97-1.02-1.45-2.44-1.45-4.25c0-1.83,0.45-3.28,1.35-4.35
				s2.11-1.61,3.62-1.61c1.42,0,2.54,0.47,3.37,1.4c0.83,0.93,1.24,2.16,1.24,3.69v1.08h-7.8c0.03,1.33,0.37,2.34,1.01,3.03
				c0.64,0.69,1.53,1.03,2.69,1.03c1.22,0,2.42-0.25,3.62-0.76v1.53c-0.61,0.26-1.18,0.45-1.72,0.56S148.9,119.16,148.14,119.16z
				 M147.67,108.85c-0.91,0-1.63,0.3-2.18,0.89c-0.54,0.59-0.86,1.41-0.96,2.46h5.92c0-1.08-0.24-1.91-0.72-2.49
				S148.57,108.85,147.67,108.85z"/>
			<path class="st0" d="M160.39,107.42c0.5,0,0.95,0.04,1.35,0.12l-0.24,1.59c-0.47-0.1-0.88-0.15-1.24-0.15
				c-0.92,0-1.7,0.37-2.35,1.12c-0.65,0.74-0.98,1.67-0.98,2.78v6.08h-1.72v-11.33h1.42l0.2,2.1h0.08c0.42-0.74,0.93-1.31,1.52-1.7
				S159.68,107.42,160.39,107.42z"/>
			<path class="st0" d="M170.83,118.95l-0.34-1.61h-0.08c-0.56,0.71-1.13,1.19-1.69,1.44c-0.56,0.25-1.26,0.38-2.1,0.38
				c-1.12,0-2-0.29-2.64-0.87s-0.96-1.4-0.96-2.47c0-2.29,1.83-3.49,5.49-3.6l1.92-0.06v-0.7c0-0.89-0.19-1.54-0.57-1.97
				s-0.99-0.64-1.83-0.64c-0.94,0-2.01,0.29-3.2,0.87l-0.53-1.31c0.56-0.3,1.17-0.54,1.83-0.71s1.33-0.26,2-0.26
				c1.35,0,2.35,0.3,3,0.9c0.65,0.6,0.98,1.56,0.98,2.88v7.73H170.83z M166.95,117.74c1.07,0,1.91-0.29,2.52-0.88
				c0.61-0.59,0.91-1.41,0.91-2.46v-1.02l-1.72,0.07c-1.36,0.05-2.35,0.26-2.95,0.64c-0.6,0.38-0.9,0.96-0.9,1.75
				c0,0.62,0.19,1.09,0.56,1.42C165.75,117.58,166.28,117.74,166.95,117.74z"/>
			<path class="st0" d="M177.35,118.95h-1.72v-16.08h1.72V118.95z"/>
			<path class="st0" d="M194.19,117.43h-0.09c-0.79,1.15-1.98,1.73-3.55,1.73c-1.48,0-2.63-0.51-3.46-1.52
				c-0.82-1.01-1.23-2.45-1.23-4.32c0-1.87,0.41-3.32,1.24-4.35c0.83-1.03,1.98-1.55,3.45-1.55c1.54,0,2.71,0.56,3.53,1.67h0.13
				l-0.07-0.82l-0.04-0.8v-4.61h1.72v16.08h-1.39L194.19,117.43z M190.76,117.72c1.17,0,2.02-0.32,2.55-0.96
				c0.53-0.64,0.79-1.67,0.79-3.08v-0.36c0-1.61-0.27-2.75-0.8-3.44c-0.53-0.69-1.39-1.03-2.56-1.03c-1.01,0-1.78,0.39-2.31,1.17
				c-0.53,0.78-0.8,1.89-0.8,3.31c0,1.45,0.27,2.54,0.8,3.28C188.95,117.35,189.73,117.72,190.76,117.72z"/>
			<path class="st0" d="M204.23,119.16c-1.67,0-2.99-0.51-3.96-1.53c-0.97-1.02-1.45-2.44-1.45-4.25c0-1.83,0.45-3.28,1.35-4.35
				s2.11-1.61,3.62-1.61c1.42,0,2.54,0.47,3.37,1.4c0.83,0.93,1.24,2.16,1.24,3.69v1.08h-7.8c0.03,1.33,0.37,2.34,1.01,3.03
				c0.64,0.69,1.53,1.03,2.69,1.03c1.22,0,2.42-0.25,3.62-0.76v1.53c-0.61,0.26-1.18,0.45-1.72,0.56S205,119.16,204.23,119.16z
				 M203.77,108.85c-0.91,0-1.63,0.3-2.18,0.89c-0.54,0.59-0.86,1.41-0.96,2.46h5.92c0-1.08-0.24-1.91-0.72-2.49
				C205.35,109.14,204.66,108.85,203.77,108.85z"/>
			<path class="st0" d="M221.73,118.95h-1.76V105.4h-4.78v-1.56h11.33v1.56h-4.78V118.95z"/>
			<path class="st0" d="M233.31,119.16c-1.67,0-2.99-0.51-3.96-1.53c-0.97-1.02-1.45-2.44-1.45-4.25c0-1.83,0.45-3.28,1.35-4.35
				s2.11-1.61,3.62-1.61c1.42,0,2.54,0.47,3.37,1.4c0.83,0.93,1.24,2.16,1.24,3.69v1.08h-7.8c0.03,1.33,0.37,2.34,1.01,3.03
				c0.64,0.69,1.53,1.03,2.69,1.03c1.22,0,2.42-0.25,3.62-0.76v1.53c-0.61,0.26-1.18,0.45-1.72,0.56S234.08,119.16,233.31,119.16z
				 M232.85,108.85c-0.91,0-1.63,0.3-2.18,0.89c-0.54,0.59-0.86,1.41-0.96,2.46h5.92c0-1.08-0.24-1.91-0.72-2.49
				C234.43,109.14,233.74,108.85,232.85,108.85z"/>
			<path class="st0" d="M244.93,119.16c-1.64,0-2.91-0.5-3.81-1.51c-0.9-1.01-1.35-2.44-1.35-4.28c0-1.89,0.46-3.36,1.37-4.39
				c0.91-1.03,2.21-1.55,3.9-1.55c0.54,0,1.09,0.06,1.63,0.18c0.54,0.12,0.97,0.25,1.28,0.41l-0.53,1.46
				c-0.38-0.15-0.79-0.28-1.24-0.38c-0.45-0.1-0.84-0.15-1.19-0.15c-2.3,0-3.45,1.47-3.45,4.4c0,1.39,0.28,2.46,0.84,3.2
				c0.56,0.74,1.39,1.12,2.5,1.12c0.94,0,1.91-0.2,2.9-0.61v1.52C247.03,118.96,246.08,119.16,244.93,119.16z"/>
			<path class="st0" d="M258.22,118.95v-7.33c0-0.92-0.21-1.61-0.63-2.07c-0.42-0.45-1.08-0.68-1.97-0.68
				c-1.18,0-2.05,0.32-2.6,0.96s-0.83,1.7-0.83,3.17v5.94h-1.72v-11.33h1.39l0.28,1.55h0.08c0.35-0.56,0.84-0.99,1.48-1.3
				c0.63-0.31,1.34-0.46,2.12-0.46c1.36,0,2.39,0.33,3.08,0.99c0.69,0.66,1.03,1.71,1.03,3.16v7.39H258.22z"/>
			<path class="st0" d="M273.24,113.28c0,1.85-0.46,3.29-1.39,4.32c-0.93,1.04-2.21,1.56-3.85,1.56c-1.01,0-1.91-0.24-2.7-0.71
				s-1.39-1.16-1.82-2.05s-0.64-1.93-0.64-3.12c0-1.85,0.46-3.28,1.38-4.31c0.92-1.03,2.2-1.54,3.84-1.54
				c1.58,0,2.84,0.53,3.78,1.58C272.77,110.05,273.24,111.48,273.24,113.28z M264.61,113.28c0,1.45,0.29,2.55,0.87,3.31
				c0.58,0.76,1.43,1.14,2.55,1.14s1.98-0.38,2.56-1.13c0.58-0.75,0.87-1.86,0.87-3.31c0-1.44-0.29-2.53-0.87-3.28
				c-0.58-0.75-1.44-1.12-2.58-1.12c-1.12,0-1.97,0.37-2.54,1.11S264.61,111.82,264.61,113.28z"/>
			<path class="st0" d="M277.96,118.95h-1.72v-16.08h1.72V118.95z"/>
			<path class="st0" d="M291.37,113.28c0,1.85-0.46,3.29-1.39,4.32c-0.93,1.04-2.21,1.56-3.85,1.56c-1.01,0-1.91-0.24-2.7-0.71
				c-0.79-0.48-1.39-1.16-1.82-2.05c-0.43-0.89-0.64-1.93-0.64-3.12c0-1.85,0.46-3.28,1.38-4.31c0.92-1.03,2.2-1.54,3.84-1.54
				c1.58,0,2.84,0.53,3.78,1.58C290.91,110.05,291.37,111.48,291.37,113.28z M282.75,113.28c0,1.45,0.29,2.55,0.87,3.31
				s1.43,1.14,2.55,1.14c1.12,0,1.98-0.38,2.56-1.13c0.58-0.75,0.87-1.86,0.87-3.31c0-1.44-0.29-2.53-0.87-3.28
				c-0.58-0.75-1.44-1.12-2.58-1.12c-1.12,0-1.97,0.37-2.54,1.11C283.03,110.72,282.75,111.82,282.75,113.28z"/>
			<path class="st0" d="M303.65,107.62v1.08l-2.1,0.25c0.19,0.24,0.37,0.56,0.52,0.95c0.15,0.39,0.23,0.83,0.23,1.32
				c0,1.11-0.38,1.99-1.14,2.66c-0.76,0.66-1.8,0.99-3.12,0.99c-0.34,0-0.65-0.03-0.95-0.08c-0.73,0.39-1.1,0.87-1.1,1.46
				c0,0.31,0.13,0.54,0.38,0.69s0.69,0.22,1.31,0.22h2c1.23,0,2.17,0.26,2.83,0.77c0.66,0.52,0.99,1.27,0.99,2.25
				c0,1.25-0.5,2.21-1.51,2.87c-1.01,0.66-2.47,0.99-4.4,0.99c-1.48,0-2.62-0.28-3.43-0.83c-0.8-0.55-1.2-1.33-1.2-2.34
				c0-0.69,0.22-1.28,0.66-1.79c0.44-0.5,1.06-0.84,1.86-1.02c-0.29-0.13-0.53-0.33-0.73-0.61c-0.2-0.28-0.29-0.6-0.29-0.96
				c0-0.41,0.11-0.77,0.33-1.08c0.22-0.31,0.57-0.61,1.04-0.9c-0.59-0.24-1.06-0.65-1.43-1.23c-0.37-0.58-0.55-1.24-0.55-1.98
				c0-1.24,0.37-2.2,1.12-2.87c0.74-0.67,1.8-1.01,3.16-1.01c0.59,0,1.13,0.07,1.6,0.21H303.65z M294.62,120.85
				c0,0.61,0.26,1.08,0.77,1.39c0.52,0.32,1.26,0.48,2.22,0.48c1.44,0,2.51-0.22,3.2-0.65s1.04-1.01,1.04-1.75
				c0-0.61-0.19-1.04-0.57-1.28c-0.38-0.24-1.09-0.36-2.14-0.36h-2.06c-0.78,0-1.38,0.19-1.82,0.56S294.62,120.16,294.62,120.85z
				 M295.55,111.25c0,0.79,0.22,1.39,0.67,1.8c0.45,0.41,1.07,0.61,1.87,0.61c1.67,0,2.51-0.81,2.51-2.44c0-1.7-0.85-2.55-2.54-2.55
				c-0.81,0-1.43,0.22-1.86,0.65S295.55,110.4,295.55,111.25z"/>
			<path class="st0" d="M305.9,105.87c0.33-0.43,0.69-0.94,1.07-1.55c0.38-0.61,0.68-1.13,0.9-1.58h2.09v0.22
				c-0.3,0.45-0.75,1-1.35,1.65c-0.6,0.65-1.12,1.16-1.56,1.52h-1.15V105.87z M307.69,118.95h-1.72v-11.33h1.72V118.95z"/>
			<path class="st0" d="M318.29,118.95l-0.34-1.61h-0.08c-0.56,0.71-1.13,1.19-1.69,1.44c-0.56,0.25-1.26,0.38-2.1,0.38
				c-1.12,0-2-0.29-2.64-0.87s-0.96-1.4-0.96-2.47c0-2.29,1.83-3.49,5.49-3.6l1.92-0.06v-0.7c0-0.89-0.19-1.54-0.57-1.97
				c-0.38-0.42-0.99-0.64-1.83-0.64c-0.94,0-2.01,0.29-3.2,0.87l-0.53-1.31c0.56-0.3,1.17-0.54,1.83-0.71s1.33-0.26,2-0.26
				c1.35,0,2.35,0.3,3,0.9c0.65,0.6,0.98,1.56,0.98,2.88v7.73H318.29z M314.42,117.74c1.07,0,1.91-0.29,2.52-0.88
				c0.61-0.59,0.91-1.41,0.91-2.46v-1.02l-1.72,0.07c-1.36,0.05-2.35,0.26-2.95,0.64c-0.6,0.38-0.9,0.96-0.9,1.75
				c0,0.62,0.19,1.09,0.56,1.42C313.22,117.58,313.74,117.74,314.42,117.74z"/>
			<path class="st0" d="M330.4,115.86c0,1.05-0.39,1.87-1.18,2.44c-0.79,0.57-1.89,0.86-3.31,0.86c-1.5,0-2.67-0.24-3.51-0.71v-1.59
				c0.54,0.28,1.13,0.49,1.75,0.65c0.62,0.16,1.22,0.24,1.8,0.24c0.9,0,1.58-0.14,2.07-0.43c0.48-0.29,0.72-0.72,0.72-1.31
				c0-0.44-0.19-0.82-0.57-1.13s-1.13-0.68-2.24-1.11c-1.05-0.39-1.8-0.74-2.25-1.03c-0.44-0.29-0.77-0.63-0.99-1
				c-0.22-0.37-0.33-0.82-0.33-1.33c0-0.92,0.38-1.65,1.13-2.19c0.75-0.53,1.78-0.8,3.09-0.8c1.22,0,2.41,0.25,3.58,0.74l-0.61,1.39
				c-1.14-0.47-2.17-0.7-3.09-0.7c-0.81,0-1.43,0.13-1.84,0.38s-0.62,0.61-0.62,1.05c0,0.3,0.08,0.56,0.23,0.77
				c0.15,0.21,0.4,0.42,0.75,0.61c0.34,0.19,1.01,0.47,1.98,0.84c1.34,0.49,2.25,0.98,2.72,1.48
				C330.17,114.49,330.4,115.11,330.4,115.86z"/>
		</g>
		<g>
			<path class="st0" d="M13.58,143.73h-0.09c-0.79,1.15-1.97,1.72-3.54,1.72c-1.47,0-2.62-0.5-3.44-1.51
				c-0.82-1.01-1.23-2.44-1.23-4.3s0.41-3.3,1.23-4.33c0.82-1.03,1.97-1.54,3.44-1.54c1.53,0,2.7,0.56,3.52,1.67h0.13l-0.07-0.81
				l-0.04-0.79v-4.59h1.71v16.01h-1.39L13.58,143.73z M10.17,144.02c1.17,0,2.01-0.32,2.54-0.95c0.52-0.63,0.79-1.66,0.79-3.07
				v-0.36c0-1.6-0.27-2.74-0.8-3.42s-1.38-1.02-2.55-1.02c-1,0-1.77,0.39-2.3,1.17c-0.53,0.78-0.8,1.88-0.8,3.3
				c0,1.44,0.26,2.53,0.79,3.26C8.37,143.65,9.14,144.02,10.17,144.02z"/>
			<path class="st0" d="M24.19,145.45c-1.67,0-2.98-0.51-3.94-1.52s-1.45-2.42-1.45-4.23c0-1.82,0.45-3.26,1.34-4.33
				c0.89-1.07,2.1-1.6,3.61-1.6c1.41,0,2.53,0.46,3.35,1.39c0.82,0.93,1.23,2.15,1.23,3.68v1.08h-7.77c0.03,1.32,0.37,2.33,1,3.01
				c0.63,0.69,1.53,1.03,2.68,1.03c1.21,0,2.41-0.25,3.6-0.76v1.52c-0.6,0.26-1.17,0.45-1.71,0.56
				C25.6,145.39,24.95,145.45,24.19,145.45z M23.73,135.19c-0.91,0-1.63,0.29-2.17,0.88c-0.54,0.59-0.86,1.41-0.95,2.45h5.89
				c0-1.08-0.24-1.9-0.72-2.47C25.3,135.48,24.62,135.19,23.73,135.19z"/>
			<path class="st0" d="M38.2,145.24v-15.04h1.75v15.04H38.2z"/>
			<path class="st0" d="M52.14,145.24v-7.29c0-0.92-0.21-1.6-0.63-2.06c-0.42-0.45-1.07-0.68-1.96-0.68c-1.18,0-2.04,0.32-2.59,0.96
				c-0.55,0.64-0.82,1.69-0.82,3.16v5.91h-1.71v-11.27h1.39l0.28,1.54h0.08c0.35-0.56,0.84-0.99,1.47-1.29
				c0.63-0.31,1.33-0.46,2.11-0.46c1.36,0,2.38,0.33,3.07,0.98c0.69,0.65,1.03,1.7,1.03,3.14v7.35H52.14z"/>
			<path class="st0" d="M63.05,135.3h-2.87v9.95h-1.71v-9.95h-2.02v-0.77l2.02-0.62v-0.63c0-2.77,1.21-4.16,3.63-4.16
				c0.6,0,1.3,0.12,2.1,0.36l-0.44,1.37c-0.66-0.21-1.22-0.32-1.69-0.32c-0.64,0-1.12,0.21-1.43,0.64s-0.46,1.12-0.46,2.06v0.73
				h2.87V135.3z"/>
			<path class="st0" d="M75.44,139.6c0,1.84-0.46,3.27-1.39,4.3c-0.93,1.03-2.2,1.55-3.84,1.55c-1.01,0-1.9-0.24-2.68-0.71
				c-0.78-0.47-1.39-1.15-1.81-2.04c-0.43-0.88-0.64-1.92-0.64-3.11c0-1.84,0.46-3.27,1.38-4.29c0.92-1.03,2.19-1.54,3.83-1.54
				c1.58,0,2.83,0.52,3.76,1.57S75.44,137.81,75.44,139.6z M66.86,139.6c0,1.44,0.29,2.54,0.86,3.29c0.58,0.75,1.42,1.13,2.54,1.13
				c1.12,0,1.97-0.38,2.55-1.13c0.58-0.75,0.87-1.85,0.87-3.3c0-1.43-0.29-2.52-0.87-3.27c-0.58-0.74-1.43-1.12-2.57-1.12
				c-1.12,0-1.96,0.37-2.53,1.1C67.14,137.05,66.86,138.14,66.86,139.6z"/>
			<path class="st0" d="M84.19,133.77c0.5,0,0.95,0.04,1.35,0.12l-0.24,1.58c-0.47-0.1-0.88-0.15-1.23-0.15
				c-0.91,0-1.69,0.37-2.34,1.11c-0.65,0.74-0.97,1.66-0.97,2.77v6.05h-1.71v-11.27h1.41l0.2,2.09h0.08c0.42-0.73,0.92-1.3,1.51-1.7
				C82.84,133.96,83.48,133.77,84.19,133.77z"/>
			<path class="st0" d="M102.63,145.24v-7.33c0-0.9-0.19-1.57-0.58-2.02c-0.38-0.45-0.98-0.67-1.79-0.67
				c-1.06,0-1.85,0.31-2.36,0.92s-0.76,1.55-0.76,2.82v6.3h-1.71v-7.33c0-0.9-0.19-1.57-0.58-2.02c-0.38-0.45-0.98-0.67-1.8-0.67
				c-1.07,0-1.85,0.32-2.35,0.96c-0.5,0.64-0.75,1.69-0.75,3.15v5.91h-1.71v-11.27h1.39l0.28,1.54h0.08
				c0.32-0.55,0.78-0.98,1.36-1.29c0.59-0.31,1.24-0.46,1.97-0.46c1.76,0,2.91,0.64,3.46,1.91h0.08c0.34-0.59,0.82-1.06,1.46-1.4
				c0.64-0.34,1.36-0.51,2.18-0.51c1.28,0,2.23,0.33,2.86,0.98c0.63,0.65,0.95,1.7,0.95,3.14v7.35H102.63z"/>
			<path class="st0" d="M115.4,145.24l-0.34-1.6h-0.08c-0.56,0.71-1.12,1.18-1.68,1.43c-0.56,0.25-1.26,0.38-2.09,0.38
				c-1.12,0-1.99-0.29-2.63-0.86s-0.95-1.4-0.95-2.46c0-2.28,1.82-3.47,5.46-3.58l1.91-0.06v-0.7c0-0.88-0.19-1.54-0.57-1.96
				s-0.99-0.63-1.83-0.63c-0.94,0-2,0.29-3.19,0.86l-0.52-1.31c0.56-0.3,1.16-0.54,1.83-0.71s1.33-0.26,1.99-0.26
				c1.34,0,2.34,0.3,2.99,0.89c0.65,0.6,0.97,1.55,0.97,2.87v7.69H115.4z M111.54,144.04c1.06,0,1.9-0.29,2.5-0.87
				c0.61-0.58,0.91-1.4,0.91-2.45v-1.02l-1.71,0.07c-1.36,0.05-2.34,0.26-2.94,0.63c-0.6,0.37-0.9,0.95-0.9,1.74
				c0,0.62,0.19,1.09,0.56,1.41S110.87,144.04,111.54,144.04z"/>
			<path class="st0" d="M125.3,145.45c-1.63,0-2.9-0.5-3.79-1.51c-0.89-1-1.34-2.43-1.34-4.26c0-1.89,0.45-3.34,1.36-4.37
				c0.91-1.03,2.2-1.54,3.88-1.54c0.54,0,1.08,0.06,1.63,0.17s0.97,0.25,1.28,0.41l-0.52,1.45c-0.38-0.15-0.79-0.28-1.23-0.38
				c-0.45-0.1-0.84-0.15-1.18-0.15c-2.29,0-3.44,1.46-3.44,4.38c0,1.39,0.28,2.45,0.84,3.19s1.39,1.11,2.48,1.11
				c0.94,0,1.9-0.2,2.89-0.61v1.51C127.39,145.25,126.44,145.45,125.3,145.45z"/>
			<path class="st0" d="M131.29,130.92c0-0.39,0.1-0.68,0.29-0.86c0.19-0.18,0.43-0.27,0.72-0.27c0.27,0,0.51,0.09,0.71,0.28
				c0.2,0.19,0.3,0.47,0.3,0.85s-0.1,0.67-0.3,0.86c-0.2,0.19-0.44,0.28-0.71,0.28c-0.29,0-0.53-0.09-0.72-0.28
				C131.38,131.59,131.29,131.3,131.29,130.92z M133.14,145.24h-1.71v-11.27h1.71V145.24z"/>
			<path class="st0" d="M147.1,139.6c0,1.84-0.46,3.27-1.39,4.3c-0.93,1.03-2.2,1.55-3.84,1.55c-1.01,0-1.9-0.24-2.68-0.71
				c-0.78-0.47-1.39-1.15-1.81-2.04c-0.43-0.88-0.64-1.92-0.64-3.11c0-1.84,0.46-3.27,1.38-4.29c0.92-1.03,2.19-1.54,3.83-1.54
				c1.58,0,2.83,0.52,3.76,1.57C146.64,136.39,147.1,137.81,147.1,139.6z M138.51,139.6c0,1.44,0.29,2.54,0.86,3.29
				c0.58,0.75,1.42,1.13,2.54,1.13s1.97-0.38,2.55-1.13c0.58-0.75,0.87-1.85,0.87-3.3c0-1.43-0.29-2.52-0.87-3.27
				c-0.58-0.74-1.43-1.12-2.57-1.12c-1.12,0-1.96,0.37-2.53,1.1C138.8,137.05,138.51,138.14,138.51,139.6z M140.49,132.22
				c0.33-0.43,0.68-0.94,1.06-1.54c0.38-0.6,0.68-1.13,0.9-1.57h2.08v0.22c-0.3,0.45-0.75,0.99-1.35,1.65
				c-0.6,0.65-1.11,1.16-1.55,1.51h-1.14V132.22z"/>
			<path class="st0" d="M158.42,145.24v-7.29c0-0.92-0.21-1.6-0.63-2.06c-0.42-0.45-1.07-0.68-1.96-0.68
				c-1.18,0-2.04,0.32-2.59,0.96c-0.55,0.64-0.82,1.69-0.82,3.16v5.91h-1.71v-11.27h1.39l0.28,1.54h0.08
				c0.35-0.56,0.84-0.99,1.47-1.29c0.63-0.31,1.33-0.46,2.11-0.46c1.36,0,2.38,0.33,3.07,0.98c0.69,0.65,1.03,1.7,1.03,3.14v7.35
				H158.42z"/>
			<path class="st0" d="M168.54,133.97h1.83l2.47,6.43c0.54,1.47,0.88,2.53,1.01,3.18h0.08c0.09-0.35,0.28-0.95,0.56-1.79
				c0.28-0.85,1.22-3.45,2.79-7.81h1.83l-4.84,12.84c-0.48,1.27-1.04,2.17-1.68,2.7c-0.64,0.53-1.43,0.8-2.36,0.8
				c-0.52,0-1.04-0.06-1.54-0.17v-1.37c0.38,0.08,0.8,0.12,1.27,0.12c1.17,0,2.01-0.66,2.51-1.97l0.63-1.6L168.54,133.97z"/>
			<path class="st0" d="M194.33,131.55c-1.65,0-2.96,0.55-3.91,1.65c-0.96,1.1-1.43,2.61-1.43,4.52c0,1.97,0.46,3.49,1.38,4.56
				s2.24,1.61,3.94,1.61c1.05,0,2.25-0.19,3.59-0.57v1.53c-1.04,0.39-2.33,0.59-3.86,0.59c-2.21,0-3.92-0.67-5.13-2.02
				c-1.2-1.34-1.81-3.25-1.81-5.73c0-1.55,0.29-2.91,0.87-4.07c0.58-1.17,1.42-2.06,2.51-2.69c1.09-0.63,2.38-0.95,3.86-0.95
				c1.58,0,2.96,0.29,4.13,0.86l-0.74,1.5C196.61,131.82,195.47,131.55,194.33,131.55z"/>
			<path class="st0" d="M211.27,139.6c0,1.84-0.46,3.27-1.39,4.3c-0.93,1.03-2.2,1.55-3.84,1.55c-1.01,0-1.9-0.24-2.68-0.71
				c-0.78-0.47-1.39-1.15-1.81-2.04c-0.43-0.88-0.64-1.92-0.64-3.11c0-1.84,0.46-3.27,1.38-4.29c0.92-1.03,2.19-1.54,3.83-1.54
				c1.58,0,2.83,0.52,3.76,1.57C210.8,136.39,211.27,137.81,211.27,139.6z M202.68,139.6c0,1.44,0.29,2.54,0.86,3.29
				c0.58,0.75,1.42,1.13,2.54,1.13s1.97-0.38,2.55-1.13c0.58-0.75,0.87-1.85,0.87-3.3c0-1.43-0.29-2.52-0.87-3.27
				c-0.58-0.74-1.43-1.12-2.57-1.12c-1.12,0-1.96,0.37-2.53,1.1C202.96,137.05,202.68,138.14,202.68,139.6z"/>
			<path class="st0" d="M229.24,145.24v-7.33c0-0.9-0.19-1.57-0.58-2.02s-0.98-0.67-1.79-0.67c-1.06,0-1.85,0.31-2.36,0.92
				c-0.51,0.61-0.76,1.55-0.76,2.82v6.3h-1.71v-7.33c0-0.9-0.19-1.57-0.58-2.02c-0.38-0.45-0.98-0.67-1.8-0.67
				c-1.07,0-1.85,0.32-2.35,0.96c-0.5,0.64-0.75,1.69-0.75,3.15v5.91h-1.71v-11.27h1.39l0.28,1.54h0.08
				c0.32-0.55,0.78-0.98,1.36-1.29c0.59-0.31,1.24-0.46,1.97-0.46c1.76,0,2.91,0.64,3.46,1.91h0.08c0.34-0.59,0.82-1.06,1.46-1.4
				c0.64-0.34,1.36-0.51,2.18-0.51c1.28,0,2.23,0.33,2.86,0.98c0.63,0.65,0.95,1.7,0.95,3.14v7.35H229.24z"/>
			<path class="st0" d="M236.68,133.97v7.31c0,0.92,0.21,1.6,0.63,2.06s1.07,0.68,1.96,0.68c1.18,0,2.04-0.32,2.59-0.97
				s0.82-1.7,0.82-3.16v-5.92h1.71v11.27h-1.41l-0.25-1.51h-0.09c-0.35,0.56-0.83,0.98-1.46,1.28c-0.62,0.29-1.33,0.44-2.12,0.44
				c-1.37,0-2.4-0.33-3.08-0.98c-0.68-0.65-1.02-1.69-1.02-3.13v-7.38H236.68z"/>
			<path class="st0" d="M256.33,145.24v-7.29c0-0.92-0.21-1.6-0.63-2.06c-0.42-0.45-1.07-0.68-1.96-0.68
				c-1.18,0-2.04,0.32-2.59,0.96c-0.55,0.64-0.82,1.69-0.82,3.16v5.91h-1.71v-11.27h1.39l0.28,1.54h0.08
				c0.35-0.56,0.84-0.99,1.47-1.29c0.63-0.31,1.33-0.46,2.11-0.46c1.36,0,2.38,0.33,3.07,0.98c0.69,0.65,1.03,1.7,1.03,3.14v7.35
				H256.33z"/>
			<path class="st0" d="M262.02,130.92c0-0.39,0.1-0.68,0.29-0.86s0.43-0.27,0.72-0.27c0.27,0,0.51,0.09,0.71,0.28
				c0.2,0.19,0.3,0.47,0.3,0.85s-0.1,0.67-0.3,0.86c-0.2,0.19-0.44,0.28-0.71,0.28c-0.29,0-0.53-0.09-0.72-0.28
				C262.11,131.59,262.02,131.3,262.02,130.92z M263.87,145.24h-1.71v-11.27h1.71V145.24z"/>
			<path class="st0" d="M272.6,145.45c-1.63,0-2.9-0.5-3.79-1.51c-0.89-1-1.34-2.43-1.34-4.26c0-1.89,0.45-3.34,1.36-4.37
				c0.91-1.03,2.2-1.54,3.88-1.54c0.54,0,1.08,0.06,1.63,0.17c0.54,0.12,0.97,0.25,1.28,0.41l-0.52,1.45
				c-0.38-0.15-0.79-0.28-1.23-0.38c-0.45-0.1-0.84-0.15-1.18-0.15c-2.29,0-3.44,1.46-3.44,4.38c0,1.39,0.28,2.45,0.84,3.19
				s1.39,1.11,2.48,1.11c0.94,0,1.9-0.2,2.89-0.61v1.51C274.7,145.25,273.75,145.45,272.6,145.45z"/>
			<path class="st0" d="M285.67,145.24l-0.34-1.6h-0.08c-0.56,0.71-1.12,1.18-1.68,1.43c-0.56,0.25-1.26,0.38-2.09,0.38
				c-1.12,0-1.99-0.29-2.63-0.86s-0.95-1.4-0.95-2.46c0-2.28,1.82-3.47,5.46-3.58l1.91-0.06v-0.7c0-0.88-0.19-1.54-0.57-1.96
				s-0.99-0.63-1.83-0.63c-0.94,0-2,0.29-3.19,0.86l-0.52-1.31c0.56-0.3,1.16-0.54,1.83-0.71c0.66-0.17,1.33-0.26,1.99-0.26
				c1.34,0,2.34,0.3,2.99,0.89c0.65,0.6,0.97,1.55,0.97,2.87v7.69H285.67z M281.81,144.04c1.06,0,1.9-0.29,2.5-0.87
				c0.61-0.58,0.91-1.4,0.91-2.45v-1.02l-1.71,0.07c-1.36,0.05-2.34,0.26-2.94,0.63c-0.6,0.37-0.9,0.95-0.9,1.74
				c0,0.62,0.19,1.09,0.56,1.41C280.62,143.88,281.14,144.04,281.81,144.04z"/>
			<path class="st0" d="M295.57,145.45c-1.63,0-2.9-0.5-3.79-1.51c-0.89-1-1.34-2.43-1.34-4.26c0-1.89,0.45-3.34,1.36-4.37
				c0.91-1.03,2.2-1.54,3.88-1.54c0.54,0,1.08,0.06,1.63,0.17c0.54,0.12,0.97,0.25,1.28,0.41l-0.52,1.45
				c-0.38-0.15-0.79-0.28-1.23-0.38c-0.45-0.1-0.84-0.15-1.18-0.15c-2.29,0-3.44,1.46-3.44,4.38c0,1.39,0.28,2.45,0.84,3.19
				c0.56,0.74,1.39,1.11,2.48,1.11c0.94,0,1.9-0.2,2.89-0.61v1.51C297.67,145.25,296.72,145.45,295.57,145.45z"/>
			<path class="st0" d="M301.56,130.92c0-0.39,0.1-0.68,0.29-0.86s0.43-0.27,0.72-0.27c0.27,0,0.51,0.09,0.71,0.28
				c0.2,0.19,0.3,0.47,0.3,0.85s-0.1,0.67-0.3,0.86c-0.2,0.19-0.44,0.28-0.71,0.28c-0.29,0-0.53-0.09-0.72-0.28
				C301.66,131.59,301.56,131.3,301.56,130.92z M303.41,145.24h-1.71v-11.27h1.71V145.24z"/>
			<path class="st0" d="M317.38,139.6c0,1.84-0.46,3.27-1.39,4.3c-0.93,1.03-2.2,1.55-3.84,1.55c-1.01,0-1.9-0.24-2.68-0.71
				c-0.78-0.47-1.39-1.15-1.81-2.04c-0.43-0.88-0.64-1.92-0.64-3.11c0-1.84,0.46-3.27,1.38-4.29c0.92-1.03,2.19-1.54,3.83-1.54
				c1.58,0,2.83,0.52,3.76,1.57C316.91,136.39,317.38,137.81,317.38,139.6z M308.79,139.6c0,1.44,0.29,2.54,0.86,3.29
				c0.58,0.75,1.42,1.13,2.54,1.13s1.97-0.38,2.55-1.13c0.58-0.75,0.87-1.85,0.87-3.3c0-1.43-0.29-2.52-0.87-3.27
				c-0.58-0.74-1.43-1.12-2.57-1.12c-1.12,0-1.96,0.37-2.53,1.1C309.07,137.05,308.79,138.14,308.79,139.6z M310.76,132.22
				c0.33-0.43,0.68-0.94,1.06-1.54c0.38-0.6,0.68-1.13,0.9-1.57h2.08v0.22c-0.3,0.45-0.75,0.99-1.35,1.65
				c-0.6,0.65-1.11,1.16-1.55,1.51h-1.14V132.22z"/>
			<path class="st0" d="M328.69,145.24v-7.29c0-0.92-0.21-1.6-0.63-2.06c-0.42-0.45-1.07-0.68-1.96-0.68
				c-1.18,0-2.04,0.32-2.59,0.96c-0.55,0.64-0.82,1.69-0.82,3.16v5.91h-1.71v-11.27h1.39l0.28,1.54h0.08
				c0.35-0.56,0.84-0.99,1.47-1.29c0.63-0.31,1.33-0.46,2.11-0.46c1.36,0,2.38,0.33,3.07,0.98c0.69,0.65,1.03,1.7,1.03,3.14v7.35
				H328.69z"/>
		</g>
		<g>
			<path class="st0" d="M71.99,41.92c0,12.89-3.77,22.76-11.3,29.61S42.27,81.81,28.05,81.81H5.28V3.53h25.24
				c13.12,0,23.32,3.37,30.58,10.12C68.36,20.39,71.99,29.82,71.99,41.92z M54.28,42.35c0-16.81-7.63-25.22-22.88-25.22h-9.07V68.1
				h7.31C46.07,68.1,54.28,59.52,54.28,42.35z"/>
			<path class="st0" d="M119.17,37.85h31.9v40.59c-5.17,1.64-10.04,2.79-14.6,3.45c-4.57,0.66-9.23,0.99-14,0.99
				c-12.13,0-21.4-3.47-27.8-10.42c-6.4-6.94-9.6-16.91-9.6-29.91c0-12.64,3.71-22.49,11.13-29.56c7.43-7.07,17.72-10.6,30.88-10.6
				c8.25,0,16.2,1.61,23.87,4.82l-5.67,13.28c-5.87-2.86-11.97-4.28-18.31-4.28c-7.37,0-13.27,2.41-17.71,7.23
				c-4.44,4.82-6.65,11.3-6.65,19.44c0,8.5,1.79,14.99,5.36,19.46c3.57,4.48,8.77,6.72,15.59,6.72c3.56,0,7.17-0.36,10.83-1.07
				V51.67h-15.23V37.85z"/>
			<path class="st0" d="M201.22,81.81h-17.05V17.34h-21.83V3.53h60.71v13.82h-21.83V81.81z"/>
			<path class="st0" d="M235.43,81.81V3.53h17.05v78.29H235.43z"/>
			<path class="st0" d="M306.86,16.22c-6.42,0-11.38,2.35-14.9,7.04c-3.52,4.69-5.28,11.24-5.28,19.63
				c0,17.46,6.73,26.18,20.18,26.18c5.65,0,12.48-1.37,20.51-4.12v13.92c-6.6,2.68-13.97,4.02-22.11,4.02
				c-11.7,0-20.64-3.45-26.84-10.36s-9.29-16.82-9.29-29.75c0-8.14,1.52-15.27,4.57-21.39c3.04-6.12,7.41-10.82,13.12-14.08
				c5.7-3.27,12.38-4.9,20.04-4.9c7.81,0,15.65,1.84,23.54,5.52l-5.5,13.49c-3.01-1.39-6.03-2.61-9.07-3.64
				C312.78,16.73,309.8,16.22,306.86,16.22z"/>
		</g>
	</g>
</g>
</svg>
